<svg xmlns="http://www.w3.org/2000/svg" width="80.191" height="75.397"><defs><linearGradient id="a" x1=".069" y1=".5" x2=".899" y2=".5" gradientUnits="objectBoundingBox"><stop offset="0" stop-color="#a5cded" stop-opacity="0"/><stop offset="1" stop-color="#1f8df8"/></linearGradient></defs><g data-name="Group 10 Copy 5"><path data-name="Fill 1" d="M47.469 59.718H32.121v-1.87l3.837-5.609H22.529a3.794 3.794 0 01-3.837-3.744V26.058a3.793 3.793 0 013.837-3.74h34.532a3.793 3.793 0 013.837 3.74v22.437a3.794 3.794 0 01-3.837 3.74H43.632l3.837 5.609v1.874zm-24.94-33.66v18.7h34.532v-18.7z" fill="#1f8df8"/><path d="M0 0l25.333 19.168v40.454L0 79.588z" transform="rotate(90 39.794 39.795)" opacity=".599" fill="url(#a)"/><path data-name="Rectangle" d="M0 0l28.952 19.168v40.454L0 79.588z" transform="rotate(-90 38 37.397)" opacity=".599" fill="url(#a)"/></g></svg>