<svg xmlns="http://www.w3.org/2000/svg" width="50.872" height="56.87"><defs><clipPath id="a"><path data-name="Clip 2" d="M0 0h50.872v56.87H0z" transform="translate(0 .394)" fill="none"/></clipPath></defs><g data-name="Group 6 Copy 2"><g data-name="Group 3"><path data-name="Clip 2" d="M0 0h50.872v56.87H0z" fill="none"/><g data-name="Group 3" clip-path="url(#a)" transform="translate(0 -.394)"><path data-name="Fill 1" d="M25.434 57.264l-.589-.278C23.83 56.509-.001 45.093-.001 27.173V6.993l25.435-6.6 25.438 6.6v20.18c0 17.92-23.834 29.335-24.849 29.812l-.589.278zm0-54.084l-22.7 5.89v18.1a19.8 19.8 0 003.037 10.2 36.235 36.235 0 006.953 8.184 63.8 63.8 0 0012.708 8.706 63.82 63.82 0 0012.712-8.713 36.281 36.281 0 006.955-8.185 19.78 19.78 0 003.038-10.189V9.071l-22.7-5.89z" fill="#a5d1fc"/></g></g><path data-name="Fill 4" d="M25.668 48.099a48.817 48.817 0 01-9.086-5.921 30.748 30.748 0 01-6.247-6.828 16.335 16.335 0 01-2.839-8.89V11.975L25.668 7.25l18.174 4.725V26.46a16.334 16.334 0 01-2.84 8.892 30.749 30.749 0 01-6.247 6.826 48.831 48.831 0 01-9.086 5.921zm2.559-34.949l-11.54 7.894 11.73 2.9-8.933 6.668 6.961 3.8-2.889 6.338 7.213-7.159-6.137-3.341 10.17-7.59-11.947-2.956z" fill="#1f8df8"/></g></svg>