<svg xmlns="http://www.w3.org/2000/svg" width="181" height="59"><defs><linearGradient id="a" x1="46.94" x2="46.94" y1="5.75" y2="52.48" gradientUnits="userSpaceOnUse"><stop offset="0" stop-color="#1f8df8" stop-opacity=".4"/><stop offset="1" stop-color="#a5cded" stop-opacity="0"/></linearGradient><linearGradient id="b" x1="134.85" x2="134.85" y1="5.75" y2="52.48" gradientUnits="userSpaceOnUse"><stop offset="0" stop-color="#1f8df8" stop-opacity=".4"/><stop offset="1" stop-color="#a5cded" stop-opacity="0"/></linearGradient></defs><path fill="none" stroke="#777" stroke-miterlimit="50" stroke-width="1.32" d="M85.023 22.968c-2.568 9.706-9.209 22.168-12.261 25.512-6.025 6.6-10.986 9.544-24.45 9.544-15.32 0-24.33-2.846-31.102-9.822-6.265-6.458-9.04-21.358-9.154-21.99-.371-2.707-2.2-10.397-5.765-11.053L1 14.922V6.167l1.247-.265C2.479 5.852 25.572 1 44.346 1c14.843 0 32.356 4.05 38.95 5.574.878.203 1.56.36 2.011.456 2.647.563 4.12.612 5.181.604v-.008l.322.003h.03l.327-.003v.008c1.044.008 2.492-.043 5.087-.604.444-.096 1.115-.253 1.978-.456C104.72 5.05 121.95 1 136.553 1c18.471 0 41.192 4.852 41.42 4.902l1.227.265v8.755l-1.27.237c-3.509.656-5.307 8.346-5.672 11.054-.113.63-2.842 15.53-9.006 21.989-6.663 6.976-15.528 9.822-30.601 9.822-13.247 0-18.128-2.945-24.055-9.544-3.004-3.344-9.537-15.806-12.064-25.512-.651-2.5-2.57-3.814-5.708-3.906-3.188.092-5.139 1.405-5.8 3.906z"/><path fill="url(#a)" d="M31.771 50.463C27.35 48.96 16.968 43.585 16.11 26.147 15.308 9.841 22.732 8.252 27.644 7.201l.563-.122c2.647-.58 9.516-1.329 17.436-1.329 5.05 0 10.53.305 15.61 1.15 11.66 1.945 13.876 3.45 15.935 7.982 1.79 3.948-.643 13.048-1.732 16.222l-.01.034c-.05.158-5.154 15.874-14.612 19.337-9.936 3.64-24.616 1.495-29.063-.012z"/><path fill="none" stroke="#1f8df8" stroke-miterlimit="50" stroke-width="1.58" d="M31.771 50.463C27.35 48.96 16.968 43.585 16.11 26.147 15.308 9.841 22.732 8.252 27.644 7.201l.563-.122c2.647-.58 9.516-1.329 17.436-1.329 5.05 0 10.53.305 15.61 1.15 11.66 1.945 13.876 3.45 15.935 7.982 1.79 3.948-.643 13.048-1.732 16.222l-.01.034c-.05.158-5.154 15.874-14.612 19.337-9.936 3.64-24.616 1.495-29.063-.012z"/><path fill="url(#b)" d="M149.624 50.463c4.31-1.502 14.424-6.878 15.26-24.316.78-16.306-6.452-17.895-11.238-18.946l-.549-.122c-2.58-.58-9.272-1.329-16.99-1.329-4.92 0-10.259.305-15.21 1.15-11.36 1.945-13.519 3.45-15.525 7.982-1.745 3.948.626 13.048 1.687 16.222l.01.034c.049.158 5.022 15.874 14.237 19.337 9.682 3.64 23.985 1.495 28.318-.012z"/><path fill="none" stroke="#1f8df8" stroke-miterlimit="50" stroke-width="1.58" d="M149.624 50.463c4.31-1.502 14.424-6.878 15.26-24.316.78-16.306-6.452-17.895-11.238-18.946l-.549-.122c-2.58-.58-9.272-1.329-16.99-1.329-4.92 0-10.259.305-15.21 1.15-11.36 1.945-13.519 3.45-15.525 7.982-1.745 3.948.626 13.048 1.687 16.222l.01.034c.049.158 5.022 15.874 14.237 19.337 9.682 3.64 23.985 1.495 28.318-.012z"/><path fill="#1f8df8" d="M34.782 22.59v3.908H31.1v1.945h3.682v3.917h2.182v-3.917h3.702v-1.945h-3.702V22.59zm17.078 6.467h11.162V27.2H51.86zm-7.319 5.067l.001-.002 5.455-14.112h-2.141L42.37 34.124zm80.521-11.534v3.908h-3.682v1.945h3.682v3.917h2.182v-3.917h3.702v-1.945h-3.702V22.59zm17.078 6.467h11.162V27.2H142.14zm-7.309 5.067l.001-.002 5.455-14.112h-2.141l-5.486 14.114z"/></svg>